# ProBuilder 5.0.6
# https://unity3d.com/unity/features/worldbuilding/probuilder
# 23/04/2023 22:57:28

mtllib ./Fan_cowling.mtl
o Fan cowling

g Fan cowling
v -5.168309 -0.75 1.881111
v -5.5 -0.75 0
v -5.168309 0.75 1.881111
v -5.5 0.75 0
v -5.25 -0.75 0
v -4.933386 -0.75 1.795606
v -5.25 0.75 0
v -4.933386 0.75 1.795606
v -4.213244 -0.75 3.535332
v -4.213244 0.75 3.535332
v -4.021733 -0.75 3.374635
v -4.021733 0.75 3.374635
v -2.75 -0.75 4.76314
v -2.75 0.75 4.76314
v -2.625 -0.75 4.546633
v -2.625 0.75 4.546633
v -0.9550653 -0.75 5.416442
v -0.9550653 0.75 5.416442
v -0.9116532 -0.75 5.17024
v -0.9116532 0.75 5.17024
v 0.9550651 -0.75 5.416442
v 0.9550651 0.75 5.416442
v 0.911653 -0.75 5.17024
v 0.911653 0.75 5.17024
v 2.75 -0.75 4.76314
v 2.75 0.75 4.76314
v 2.625 -0.75 4.546633
v 2.625 0.75 4.546633
v 4.213244 -0.75 3.535332
v 4.213244 0.75 3.535332
v 4.021733 -0.75 3.374635
v 4.021733 0.75 3.374635
v 5.168309 -0.75 1.881111
v 5.168309 0.75 1.881111
v 4.933386 -0.75 1.795606
v 4.933386 0.75 1.795606
v 5.5 -0.75 -4.808253E-07
v 5.5 0.75 -4.808253E-07
v 5.25 -0.75 -4.589696E-07
v 5.25 0.75 -4.589696E-07
v 5.168309 -0.75 -1.881111
v 5.168309 0.75 -1.881111
v 4.933386 -0.75 -1.795606
v 4.933386 0.75 -1.795606
v 4.213245 -0.75 -3.535332
v 4.213245 0.75 -3.535332
v 4.021734 -0.75 -3.374635
v 4.021734 0.75 -3.374635
v 2.75 -0.75 -4.76314
v 2.75 0.75 -4.76314
v 2.625 -0.75 -4.546633
v 2.625 0.75 -4.546633
v 0.9550647 -0.75 -5.416443
v 0.9550647 0.75 -5.416443
v 0.9116527 -0.75 -5.170241
v 0.9116527 0.75 -5.170241
v -0.9550648 -0.75 -5.416442
v -0.9550648 0.75 -5.416442
v -0.9116528 -0.75 -5.17024
v -0.9116528 0.75 -5.17024
v -2.75 -0.75 -4.76314
v -2.75 0.75 -4.76314
v -2.625 -0.75 -4.546633
v -2.625 0.75 -4.546633
v -4.213244 -0.75 -3.535333
v -4.213244 0.75 -3.535333
v -4.021733 -0.75 -3.374636
v -4.021733 0.75 -3.374636
v -5.168309 -0.75 -1.881112
v -5.168309 0.75 -1.881112
v -4.933386 -0.75 -1.795607
v -4.933386 0.75 -1.795607

vt 0.9550642 -0.75
vt -0.9550656 -0.75
vt 0.9550642 0.75
vt -0.9550656 0.75
vt 0.9116542 -0.75
vt -0.9116517 -0.75
vt 0.9116542 0.75
vt -0.9116517 0.75
vt -5.5 0
vt -5.168309 1.881111
vt -5.25 0
vt -4.933386 1.795606
vt 5.168309 1.881111
vt 5.5 0
vt 4.933386 1.795606
vt 5.25 0
vt -4.213244 3.535332
vt -4.021733 3.374635
vt 4.213244 3.535332
vt 4.021733 3.374635
vt -2.75 4.76314
vt -2.625 4.546633
vt 2.75 4.76314
vt 2.625 4.546633
vt -0.9550653 5.416442
vt -0.9116532 5.17024
vt 0.9550653 5.416442
vt 0.9116532 5.17024
vt 2.75 4.76314
vt 2.625 4.546633
vt -2.75 4.76314
vt -2.625 4.546633
vt 5.168309 -1.881111
vt 4.933386 -1.795606
vt -5.168309 -1.881111
vt -4.933386 -1.795606
vt 4.213245 -3.535332
vt 4.021734 -3.374635
vt -4.213245 -3.535332
vt -4.021734 -3.374635
vt 2.75 -4.76314
vt 2.625 -4.546633
vt -2.75 -4.76314
vt -2.625 -4.546633
vt 0.9550647 -5.416443
vt 0.9116527 -5.170241
vt -0.9550647 -5.416443
vt -0.9116527 -5.170241

vn -0.9396926 0 0.3420202
vn -1 0 6.052414E-08
vn 1 0 -6.052414E-08
vn 0.9396926 0 -0.3420202
vn -0.7660444 0 0.6427876
vn 0.7660444 0 -0.6427876
vn -0.5 0 0.8660254
vn 0.5 0 -0.8660254
vn -0.1736482 0 0.9848078
vn 0.1736482 0 -0.9848078
vn 0.1736481 0 0.9848078
vn -0.1736481 0 -0.9848078
vn 0.5 0 0.8660254
vn -0.5 0 -0.8660254
vn 0.7660445 0 0.6427876
vn -0.7660445 0 -0.6427876
vn 0.9396926 0 0.3420201
vn -0.9396926 0 -0.3420202
vn 0 -1 0
vn 0 1 0

usemtl ProBuilderDefault
f 3/3/1 4/4/2 2/2/2 1/1/1
f 7/7/3 8/8/4 6/6/4 5/5/3
f 10/3/5 3/4/1 1/2/1 9/1/5
f 8/7/4 12/8/6 11/6/6 6/5/4
f 14/3/7 10/4/5 9/2/5 13/1/7
f 12/7/6 16/8/8 15/6/8 11/5/6
f 18/3/9 14/4/7 13/2/7 17/1/9
f 16/7/8 20/8/10 19/6/10 15/5/8
f 22/3/11 18/4/9 17/2/9 21/1/11
f 20/7/10 24/8/12 23/6/12 19/5/10
f 26/3/13 22/4/11 21/2/11 25/1/13
f 24/7/12 28/8/14 27/6/14 23/5/12
f 30/3/15 26/4/13 25/2/13 29/1/15
f 28/7/14 32/8/16 31/6/16 27/5/14
f 34/3/17 30/4/15 29/2/15 33/1/17
f 32/7/16 36/8/18 35/6/18 31/5/16
f 38/3/3 34/4/17 33/2/17 37/1/3
f 36/7/18 40/8/2 39/6/2 35/5/18
f 42/3/4 38/4/3 37/2/3 41/1/4
f 40/7/2 44/8/1 43/6/1 39/5/2
f 46/3/6 42/4/4 41/2/4 45/1/6
f 44/7/1 48/8/5 47/6/5 43/5/1
f 50/3/8 46/4/6 45/2/6 49/1/8
f 48/7/5 52/8/7 51/6/7 47/5/5
f 54/3/10 50/4/8 49/2/8 53/1/10
f 52/7/7 56/8/9 55/6/9 51/5/7
f 58/3/12 54/4/10 53/2/10 57/1/12
f 56/7/9 60/8/11 59/6/11 55/5/9
f 62/3/14 58/4/12 57/2/12 61/1/14
f 60/7/11 64/8/13 63/6/13 59/5/11
f 66/3/16 62/4/14 61/2/14 65/1/16
f 64/7/13 68/8/15 67/6/15 63/5/13
f 70/3/18 66/4/16 65/2/16 69/1/18
f 68/7/15 72/8/17 71/6/17 67/5/15
f 4/3/2 70/4/18 69/2/18 2/1/2
f 72/7/17 7/8/3 5/6/3 71/5/17
f 5/11/19 6/12/19 1/10/19 2/9/19
f 8/15/20 7/16/20 4/14/20 3/13/20
f 6/12/19 11/18/19 9/17/19 1/10/19
f 12/20/20 8/15/20 3/13/20 10/19/20
f 11/18/19 15/22/19 13/21/19 9/17/19
f 16/24/20 12/20/20 10/19/20 14/23/20
f 15/22/19 19/26/19 17/25/19 13/21/19
f 20/28/20 16/24/20 14/23/20 18/27/20
f 19/26/19 23/28/19 21/27/19 17/25/19
f 24/26/20 20/28/20 18/27/20 22/25/20
f 23/28/19 27/30/19 25/29/19 21/27/19
f 28/32/20 24/26/20 22/25/20 26/31/20
f 27/30/19 31/20/19 29/19/19 25/29/19
f 32/18/20 28/32/20 26/31/20 30/17/20
f 31/20/19 35/15/19 33/13/19 29/19/19
f 36/12/20 32/18/20 30/17/20 34/10/20
f 35/15/19 39/16/19 37/14/19 33/13/19
f 40/11/20 36/12/20 34/10/20 38/9/20
f 39/16/19 43/34/19 41/33/19 37/14/19
f 44/36/20 40/11/20 38/9/20 42/35/20
f 43/34/19 47/38/19 45/37/19 41/33/19
f 48/40/20 44/36/20 42/35/20 46/39/20
f 47/38/19 51/42/19 49/41/19 45/37/19
f 52/44/20 48/40/20 46/39/20 50/43/20
f 51/42/19 55/46/19 53/45/19 49/41/19
f 56/48/20 52/44/20 50/43/20 54/47/20
f 55/46/19 59/48/19 57/47/19 53/45/19
f 60/46/20 56/48/20 54/47/20 58/45/20
f 59/48/19 63/44/19 61/43/19 57/47/19
f 64/42/20 60/46/20 58/45/20 62/41/20
f 63/44/19 67/40/19 65/39/19 61/43/19
f 68/38/20 64/42/20 62/41/20 66/37/20
f 67/40/19 71/36/19 69/35/19 65/39/19
f 72/34/20 68/38/20 66/37/20 70/33/20
f 71/36/19 5/11/19 2/9/19 69/35/19
f 7/16/20 72/34/20 70/33/20 4/14/20

