# ProBuilder 5.0.6
# https://unity3d.com/unity/features/worldbuilding/probuilder
# 14/04/2023 12:10:11

mtllib ./Hill.mtl
o Hill

g Slope
v -137 -0.1161703 -439.5743
v -221.047 72.6657 -439.5742
v -326.3629 73.75024 -439.5743
v -325.7945 1.187461 -439.5746
v -319.8206 73.75024 338
v -221.047 72.6657 338
v -324.3134 0.9456902 338
v -137 -0.7155156 338

vt -0.001331288 3.021166
vt -84.04832 -69.76069
vt -189.3642 -70.84523
vt -188.7958 1.717534
vt 182.8206 -70.85023
vt 84.047 -69.76569
vt 187.3134 1.95431
vt 1.820944E-14 3.615515
vt 183.5405 -3.478608E-06
vt 84.76095 -1.342863E-06
vt 190.0824 -1003.309
vt 84.76095 -1003.308
vt 0.4871287 -1.221413
vt -72.27999 -1.18841
vt 0.2338575 -1004.519
vt -72.33113 -1004.518
vt 109.206 0.001021855
vt -2.366818 0.001233152
vt 109.2059 -1003.307
vt -1.974531 -1003.307
vt 0.02496463 0.0008331215
vt -187.2955 0.0007480802
vt 0.02082688 -1003.308
vt -188.7782 -1003.308

vn 1.326898E-06 4.979079E-06 -0.7750101
vn -2.036214E-08 2.807747E-08 0.7750101
vn 0.01097949 0.9999399 -5.544338E-05
vn 0.01029744 0.9999471 4.84864E-08
vn -0.9981002 0.0615936 0.001153398
vn -0.9990242 0.02688066 0.003103369
vn -0.9999481 -0.007832276 0.00505334
vn 0.6576924 0.7532867 3.652609E-08
vn 0.6561602 0.7546189 0.0001750258
vn 0.654628 0.755951 0.0003500152
vn -0.008868238 -0.9999606 -0.0004629961
vn -0.00788655 -0.9999684 -0.0003209482
vn -0.006904862 -0.9999763 -0.0001789004

usemtl Probuilder_floor
f 4/4/1 3/3/1 2/2/1 1/1/1
f 7/7/2 8/8/2 6/6/2 5/5/2
f 5/9/3 6/10/3 2/12/4 3/11/3
f 7/13/5 5/14/6 3/16/7 4/15/6
f 6/17/8 8/18/9 1/20/10 2/19/9
f 8/21/11 7/22/12 4/24/13 1/23/12

